<?xml version="1.0" encoding="UTF-8" standalone="no"?>
<!-- Created with Inkscape (http://www.inkscape.org/) -->

<svg
   width="127.78906"
   height="127.99999"
   viewBox="0 0 33.810855 33.866664"
   version="1.1"
   id="svg1"
   xmlns="http://www.w3.org/2000/svg"
   xmlns:svg="http://www.w3.org/2000/svg">
  <defs
     id="defs1" />
  <g
     id="layer1">
    <g
       id="g5288"
       style="fill:#27272a;fill-opacity:1">
      <path
         d="m 10.008174,27.579195 -2.4158727,3.449918 a 16.933332,16.933332 0 0 0 9.3410317,2.837553 16.933332,16.933332 0 0 0 6.768062,-1.4118 16.933332,16.933332 0 0 0 2.722315,-1.541508 16.933332,16.933332 0 0 0 1.229382,-0.872298 16.933332,16.933332 0 0 0 0.111621,-0.104903 16.933332,16.933332 0 0 0 1.577681,-1.48208 16.933332,16.933332 0 0 0 0.313676,-0.387574 16.933332,16.933332 0 0 0 0.203606,-0.230477 l -2.848405,-3.174999 a 12.7,12.7 0 0 1 -10.077938,4.972306 12.7,12.7 0 0 1 -6.925159,-2.054138 z"
         style="fill:#27272a;fill-opacity:1;stroke-width:0"
         id="path5285" />
      <path
         d="M 8.0010619,7.9054605 5.5464314,4.4002481 A 16.933332,16.933332 0 0 0 0,16.933333 16.933332,16.933332 0 0 0 5.5464314,29.466418 L 8.0010619,25.961206 A 12.7,12.7 0 0 1 4.2333332,16.933333 12.7,12.7 0 0 1 8.0010619,7.9054605 Z"
         style="fill:#27272a;fill-opacity:1;stroke-width:0"
         id="path5284" />
      <path
         d="M 16.933333,0 A 16.933332,16.933332 0 0 0 7.5923013,2.8375528 l 2.4158727,3.4499186 a 12.7,12.7 0 0 1 6.925159,-2.0541382 12.7,12.7 0 0 1 10.080005,4.9743733 l 2.83962,-3.1646646 A 16.933332,16.933332 0 0 0 16.933333,0 Z"
         style="fill:#27272a;fill-opacity:1;stroke-width:0"
         id="path5283" />
      <path
         d="m 11.526945,8.4563312 2.736784,3.9082888 a 5.2916665,5.2916665 0 0 1 2.669604,-0.722954 5.2916665,5.2916665 0 0 1 2.700094,0.74104 l -2.117184,3.175 h 2.117184 1.414383 0.705901 12.057144 A 16.933332,16.933332 0 0 0 32.910652,11.324373 H 25.277526 A 10.054167,10.054167 0 0 0 16.933333,6.8791665 10.054167,10.054167 0 0 0 11.526945,8.4563312 Z"
         style="fill:#27272a;fill-opacity:1;stroke-width:0"
         id="path5288" />
      <path
         d="M 9.5461871,23.754105 12.404927,19.67115 a 5.2916665,5.2916665 0 0 1 -0.763261,-2.737817 5.2916665,5.2916665 0 0 1 0.763261,-2.737817 L 9.5461871,10.112561 a 10.054167,10.054167 0 0 0 -2.6670206,6.820772 10.054167,10.054167 0 0 0 2.6670206,6.820772 z"
         style="fill:#27272a;fill-opacity:1;stroke-width:0"
         id="path5287" />
      <path
         d="m 14.263729,21.502046 -2.736784,3.908289 a 10.054167,10.054167 0 0 0 5.406388,1.577164 10.054167,10.054167 0 0 0 8.342643,-4.443139 h 7.634159 a 16.933332,16.933332 0 0 0 0.900204,-4.233333 h -12.057145 -0.7059 -1.414901 -2.1177 l 2.117183,3.173966 h -5.17e-4 A 5.2916665,5.2916665 0 0 1 16.933333,22.225 5.2916665,5.2916665 0 0 1 14.263729,21.502046 Z"
         style="fill:#27272a;fill-opacity:1;stroke-width:0"
         id="path5286" />
    </g>
    <g
       id="g5289"
       style="fill:#7c3aed;fill-opacity:1">
      <path
         d="m 29.877246,6.016176 -2.863908,3.1915368 h 2.866491 2.121835 a 16.933332,16.933332 0 0 0 -0.0016,-0.0026 16.933332,16.933332 0 0 0 -2.120284,-3.1863691 v 0.00103 l -0.0016,-0.00258 a 16.933332,16.933332 0 0 0 -0.001,-0.00103 z"
         style="display:inline;fill:#7c3aed;fill-opacity:1;stroke:#ffffff;stroke-width:0;stroke-miterlimit:0"
         id="path5279-6" />
      <path
         d="m 27.011271,24.661033 2.863907,3.192053 a 16.933332,16.933332 0 0 0 0.001,-0.0016 l 0.0016,-0.0026 v 0.001 a 16.933332,16.933332 0 0 0 2.121835,-3.186885 v -0.0021 h -2.121835 z"
         style="display:inline;fill:#7c3aed;fill-opacity:1;stroke:#ffffff;stroke-width:0;stroke-miterlimit:0"
         id="path5280-9" />
      <path
         d="M 7.5788654,2.8184326 A 16.933332,16.933332 0 0 0 5.5464314,4.4002481 L 13.358357,15.556673 h 1.927531 0.210323 1.002523 z"
         style="display:inline;fill:#7c3aed;fill-opacity:1;stroke:#ffffff;stroke-width:0;stroke-miterlimit:0"
         id="path5282" />
      <path
         d="M 7.5788654,31.048233 16.498734,18.309993 H 15.496211 15.285888 13.358357 L 5.5464314,29.466418 a 16.933332,16.933332 0 0 0 2.032434,1.581815 z"
         style="display:inline;fill:#7c3aed;fill-opacity:1;stroke:#ffffff;stroke-width:0;stroke-miterlimit:0"
         id="path5281" />
    </g>
  </g>
</svg>
